<svg width="30" height="36" viewBox="0 0 30 36" fill="none" xmlns="http://www.w3.org/2000/svg">
<path d="M26.6667 25.3333V16.6666C25.8333 16.8333 25 16.9999 24.1667 16.9999H23.3333V26.9999H6.66667V15.3333C6.66667 10.6666 10.3333 6.99992 15 6.99992C15.1667 4.83325 16.1667 2.99992 17.5 1.49992C17 0.833252 16 0.333252 15 0.333252C13.1667 0.333252 11.6667 1.83325 11.6667 3.66659V4.16659C6.66667 5.66659 3.33333 10.1666 3.33333 15.3333V25.3333L0 28.6666V30.3333H30V28.6666L26.6667 25.3333ZM11.6667 31.9999C11.6667 33.8333 13.1667 35.3333 15 35.3333C16.8333 35.3333 18.3333 33.8333 18.3333 31.9999H11.6667ZM30 7.83325C30 10.9999 27.3333 13.6666 24.1667 13.6666C21 13.6666 18.3333 10.9999 18.3333 7.83325C18.3333 4.66659 21 1.99992 24.1667 1.99992C27.3333 1.99992 30 4.66659 30 7.83325Z" fill="#1E1E1E"/>
</svg>
