<svg width="60" height="28" viewBox="0 0 60 28" fill="none" xmlns="http://www.w3.org/2000/svg">
<path d="M26 27.3334C24.5333 27.3334 23.2773 26.8108 22.232 25.7654C21.1866 24.7201 20.6649 23.465 20.6666 22.0001V6.00009C20.6666 4.53342 21.1893 3.27742 22.2346 2.23209C23.28 1.18675 24.5351 0.664975 26 0.666753H34C35.4666 0.666753 36.7226 1.18942 37.768 2.23475C38.8133 3.28009 39.3351 4.5352 39.3333 6.00009V22.0001C39.3333 23.4668 38.8106 24.7228 37.7653 25.7681C36.72 26.8134 35.4649 27.3352 34 27.3334H26ZM0.666631 27.3334V22.0001H11.3333V16.6668H5.99996C4.5333 16.6668 3.2773 16.1441 2.23196 15.0988C1.18663 14.0534 0.664853 12.7983 0.666631 11.3334V6.00009C0.666631 4.53342 1.1893 3.27742 2.23463 2.23209C3.27996 1.18675 4.53507 0.664975 5.99996 0.666753H16.6666V6.00009H5.99996V11.3334H11.3333C12.8 11.3334 14.056 11.8561 15.1013 12.9014C16.1466 13.9468 16.6684 15.2019 16.6666 16.6668V22.0001C16.6666 23.4668 16.144 24.7228 15.0986 25.7681C14.0533 26.8134 12.7982 27.3352 11.3333 27.3334H0.666631ZM43.3333 27.3334V22.0001H54V16.6668H48.6666C47.2 16.6668 45.944 16.1441 44.8986 15.0988C43.8533 14.0534 43.3315 12.7983 43.3333 11.3334V6.00009C43.3333 4.53342 43.856 3.27742 44.9013 2.23209C45.9466 1.18675 47.2017 0.664975 48.6666 0.666753H59.3333V6.00009H48.6666V11.3334H54C55.4666 11.3334 56.7226 11.8561 57.768 12.9014C58.8133 13.9468 59.3351 15.2019 59.3333 16.6668V22.0001C59.3333 23.4668 58.8106 24.7228 57.7653 25.7681C56.72 26.8134 55.4649 27.3352 54 27.3334H43.3333ZM26 22.0001H34V6.00009H26V22.0001Z" fill="#F5BD1D"/>
</svg>
