<svg width="28" height="30" viewBox="0 0 28 30" fill="none" xmlns="http://www.w3.org/2000/svg">
<path d="M3.99996 26.6666H8.99996V16.6666H19V26.6666H24V11.6666L14 4.16659L3.99996 11.6666V26.6666ZM3.99996 29.9999C3.0833 29.9999 2.2983 29.6733 1.64496 29.0199C0.991629 28.3666 0.665518 27.5821 0.666629 26.6666V11.6666C0.666629 11.1388 0.784962 10.6388 1.02163 10.1666C1.2583 9.69436 1.58441 9.30547 1.99996 8.99992L12 1.49992C12.3055 1.2777 12.625 1.11103 12.9583 0.999918C13.2916 0.888807 13.6389 0.833252 14 0.833252C14.3611 0.833252 14.7083 0.888807 15.0416 0.999918C15.375 1.11103 15.6944 1.2777 16 1.49992L26 8.99992C26.4166 9.30547 26.7433 9.69436 26.98 10.1666C27.2166 10.6388 27.3344 11.1388 27.3333 11.6666V26.6666C27.3333 27.5833 27.0066 28.3683 26.3533 29.0216C25.7 29.6749 24.9155 30.001 24 29.9999H15.6666V19.9999H12.3333V29.9999H3.99996Z" fill="#1E1E1E"/>
</svg>
